<svg xmlns="http://www.w3.org/2000/svg" width="24" height="24" viewBox="0 0 24 24">
<style type="text/css">
	.st0{fill:#1D1D1B;}
	.st1{fill:none;}
	.st2{fill:#FFFFFF;}
</style>
<path class="st0" d="M21.2,24H2.8C1.3,24,0,22.7,0,21.2V2.8C0,1.3,1.3,0,2.8,0h18.3C22.7,0,24,1.3,24,2.8v18.3
	C24,22.7,22.7,24,21.2,24z"/>
<path class="st1" d="M0,0h24v24H0V0z"/>
<path class="st2" d="M9.4,16.6L4.8,12l4.6-4.6L8,6l-6,6l6,6L9.4,16.6z M14.6,16.6l4.6-4.6l-4.6-4.6L16,6l6,6l-6,6
	C16,18,14.6,16.6,14.6,16.6z"/>
</svg>