<?xml version="1.0" encoding="utf-8"?>
<!-- Generator: Adobe Illustrator 21.0.0, SVG Export Plug-In . SVG Version: 6.00 Build 0)  -->
<svg version="1.1" id="Livello_1" xmlns="http://www.w3.org/2000/svg" xmlns:xlink="http://www.w3.org/1999/xlink" x="0px" y="0px"
	 viewBox="0 0 772 250" style="enable-background:new 0 0 772 250;" xml:space="preserve">
<style type="text/css">
	.st0{fill:#EDEDED;}
	.st1{fill:#004455;}
	.st2{fill:none;}
	.st3{fill:#0096BF;}
	.st4{fill:#FFFFFF;}
	.st5{fill:#007DAD;}
</style>
<rect class="st0" width="772" height="250"/>
<g>
	<path class="st1" d="M196.2,218H53.7c-11.6,0-21.7-10.1-21.7-21.7V53.8c0-11.6,10.1-21.7,21.7-21.7h141.7
		c12.4,0,22.5,10.1,22.5,21.7v141.7C217.9,207.9,207.8,218,196.2,218z"/>
	<path class="st2" d="M31.2,32h186v186h-186V32z"/>
	<path class="st3" d="M104.8,89.4l-57.4,35.7l92.9,92.9h55.8c9.6,0,18.2-6.9,20.8-16.3L104.8,89.4z"/>
	<path class="st4" d="M104.8,160.7l-35.7-35.7l35.7-35.7L94,78.6l-46.5,46.5L94,171.6L104.8,160.7z M145.1,160.7l35.7-35.7
		l-35.7-35.7L156,78.6l46.5,46.5L156,171.6L145.1,160.7z"/>
	<path class="st5" d="M202.5,125.1L156,171.6l45.7,45.7c9.2-2.5,16.2-11.3,16.2-21.7v-55L202.5,125.1z"/>
</g>
<g>
	<path class="st1" d="M369.5,32l-58.9,147.2L251.9,32h26.5l32.2,81L343,32H369.5z"/>
	<path class="st1" d="M432.4,160.7h-49.8l-7.4,18.5h-26.5L407.3,32l58.9,147.2h-26.5L432.4,160.7z M422.7,136.3l-15.4-38.1
		l-15.1,38.1H422.7z"/>
	<path class="st1" d="M577.7,179.2l-38.3-61.4h-14.1v61.4h-24.6V93.4h23.3l-23.3-36.8V32h49c0,0,49.2,0,49.2,42.9
		c0,26.1-18.1,36.4-32.4,40.4l40,63.9H577.7z M552.9,93.2c6.5-0.6,21.5-3.8,21.5-18.3c0-18.3-24.6-18.3-24.6-18.3h-19.8L552.9,93.2z
		"/>
	<path class="st1" d="M635.1,136.3h24.6c0.4,12.2,10.5,18.3,21.5,18.3c11.4,0,21.5-6.7,21.5-18.3c0-12.4-11.6-18.1-21.5-18.5
		c-1.3,0-11.4,0-22.1-4.8c-15.4-7.2-24-20.6-24-38.1c0-26.1,22.3-42.9,46.1-42.9c25.4,0,45.4,17.9,45.8,42.9h-24.4
		c-0.4-12.2-10.3-18.3-21.5-18.3c-11.6,0-21.5,6.5-21.5,18.3c0,12.2,10.5,18.5,21.5,18.5c1.1,0,11.4,0,21.9,4.8
		c15.6,7.2,24,20.6,24,38.1c0,26.3-22.1,42.9-45.8,42.9C655.7,178.6,635.5,162,635.1,136.3z"/>
</g>
<g>
	<path class="st3" d="M321.7,192l-10.1,25.2l-10-25.2h4.5l5.5,13.9l5.5-13.9H321.7z"/>
	<path class="st3" d="M347.8,217.2h-4.5l-0.8-2.1H333l-0.8,2.1h-4.5l10-25.2L347.8,217.2z M340.7,210.9l-3-7.6l-3,7.6H340.7z"/>
	<path class="st3" d="M365.4,217.2l-6.6-10.5h-2.4v10.5h-4.2v-14.7h4l-4-6.3V192h8.4c0,0,8.4,0,8.4,7.3c0,4.5-3.1,6.2-5.5,6.9
		l6.8,10.9H365.4z M361.1,202.5c1.1-0.1,3.7-0.6,3.7-3.1c0-3.1-4.2-3.1-4.2-3.1h-3.4L361.1,202.5z"/>
	<path class="st3" d="M375.2,209.9h4.2c0.1,2.1,1.8,3.1,3.7,3.1c1.9,0,3.7-1.2,3.7-3.1c0-2.1-2-3.1-3.7-3.2c-0.2,0-1.9,0-3.8-0.8
		c-2.6-1.2-4.1-3.5-4.1-6.5c0-4.5,3.8-7.3,7.9-7.3c4.4,0,7.8,3.1,7.8,7.3h-4.2c-0.1-2.1-1.8-3.1-3.7-3.1c-2,0-3.7,1.1-3.7,3.1
		c0,2.1,1.8,3.2,3.7,3.2c0.2,0,1.9,0,3.7,0.8c2.7,1.2,4.1,3.5,4.1,6.5c0,4.5-3.8,7.3-7.8,7.3C378.7,217.1,375.3,214.2,375.2,209.9z"
		/>
	<path class="st3" d="M407.8,192h4.2v25.2h-4.2V192z"/>
	<path class="st3" d="M438.9,217.2h-4.2l-12.5-17.9v17.9h-4.2V192h4.2l12.6,17.9V192h4.2V217.2z"/>
	<path class="st3" d="M455.8,209.9h4.2c0.1,2.1,1.8,3.1,3.7,3.1c1.9,0,3.7-1.2,3.7-3.1c0-2.1-2-3.1-3.7-3.2c-0.2,0-1.9,0-3.8-0.8
		c-2.6-1.2-4.1-3.5-4.1-6.5c0-4.5,3.8-7.3,7.9-7.3c4.4,0,7.8,3.1,7.8,7.3h-4.2c-0.1-2.1-1.8-3.1-3.7-3.1c-2,0-3.7,1.1-3.7,3.1
		c0,2.1,1.8,3.2,3.7,3.2c0.2,0,1.9,0,3.7,0.8c2.7,1.2,4.1,3.5,4.1,6.5c0,4.5-3.8,7.3-7.8,7.3C459.3,217.1,455.9,214.2,455.8,209.9z"
		/>
	<path class="st3" d="M496.3,192v25.2h-4.2v-10.5h-10.5v10.5h-4.2V192h4.2v10.4h10.5V192H496.3z"/>
	<path class="st3" d="M501.4,201.4c0-5.1,4.2-9.4,9.4-9.4c5.1,0,9.4,4.2,9.4,9.4s-4.2,9.4-9.4,9.4
		C505.6,210.7,501.4,206.5,501.4,201.4z M519,217.2h-16.6V213H519V217.2z M505.6,201.4c0,2.9,2.3,5.2,5.2,5.2c2.9,0,5.2-2.3,5.2-5.2
		s-2.3-5.2-5.2-5.2C507.9,196.2,505.6,198.5,505.6,201.4z"/>
	<path class="st3" d="M539.2,217.2l-6.6-10.5h-2.4v10.5H526v-14.7h4l-4-6.3V192h8.4c0,0,8.4,0,8.4,7.3c0,4.5-3.1,6.2-5.5,6.9
		l6.8,10.9H539.2z M534.9,202.5c1.1-0.1,3.7-0.6,3.7-3.1c0-3.1-4.2-3.1-4.2-3.1H531L534.9,202.5z"/>
	<path class="st3" d="M561.6,196.2h-4.2v21h-4.2v-21H549V192h12.6V196.2z"/>
	<path class="st3" d="M583.1,210.5l3,3c-2.3,2.3-5.4,3.7-8.9,3.7c-6.9,0-12.6-5.7-12.6-12.6s5.7-12.6,12.6-12.6
		c3.5,0,6.6,1.4,8.9,3.7l-3,3c-1.5-1.5-3.6-2.4-5.9-2.4c-4.6,0-8.4,3.7-8.4,8.4s3.7,8.4,8.4,8.4C579.5,213,581.6,212,583.1,210.5z"
		/>
	<path class="st3" d="M591.1,201.4c0-5.1,4.2-9.4,9.4-9.4c5.1,0,9.4,4.2,9.4,9.4s-4.2,9.4-9.4,9.4
		C595.4,210.7,591.1,206.5,591.1,201.4z M608.7,217.2h-16.6V213h16.6V217.2z M595.3,201.4c0,2.9,2.3,5.2,5.2,5.2
		c2.9,0,5.2-2.3,5.2-5.2s-2.3-5.2-5.2-5.2C597.6,196.2,595.3,198.5,595.3,201.4z"/>
	<path class="st3" d="M634.6,204.6c0,12.6-14.6,12.6-14.6,12.6h-4.2V192h4.2C620,192,634.6,192,634.6,204.6z M630.5,204.6
		c0-8.4-10.5-8.4-10.5-8.4V213C620,213,630.5,213,630.5,204.6z"/>
	<path class="st3" d="M643.9,196.2v6.3h10.5v4.2h-10.5v6.3h12.6v4.2h-16.8V192h16.8v4.2H643.9z"/>
	<path class="st3" d="M661.6,209.9h4.2c0.1,2.1,1.8,3.1,3.7,3.1c1.9,0,3.7-1.2,3.7-3.1c0-2.1-2-3.1-3.7-3.2c-0.2,0-1.9,0-3.8-0.8
		c-2.6-1.2-4.1-3.5-4.1-6.5c0-4.5,3.8-7.3,7.9-7.3c4.4,0,7.8,3.1,7.8,7.3h-4.2c-0.1-2.1-1.8-3.1-3.7-3.1c-2,0-3.7,1.1-3.7,3.1
		c0,2.1,1.8,3.2,3.7,3.2c0.2,0,1.9,0,3.7,0.8c2.7,1.2,4.1,3.5,4.1,6.5c0,4.5-3.8,7.3-7.8,7.3C665.1,217.1,661.7,214.2,661.6,209.9z"
		/>
</g>
</svg>
