<?xml version="1.0" encoding="utf-8"?>
<!-- Generator: Adobe Illustrator 21.0.0, SVG Export Plug-In . SVG Version: 6.00 Build 0)  -->
<svg version="1.1" id="Livello_1" xmlns="http://www.w3.org/2000/svg" xmlns:xlink="http://www.w3.org/1999/xlink" x="0px" y="0px"
	 viewBox="0 0 256 256" style="enable-background:new 0 0 256 256;" xml:space="preserve">
<style type="text/css">
	.st0{fill:#004455;}
	.st1{fill:none;}
	.st2{fill:#0096BF;}
	.st3{fill:#FFFFFF;}
	.st4{fill:#007DAD;}
</style>
<path class="st0" d="M226.1,256H29.9C13.9,256,0,242.1,0,226.1V29.9C0,13.9,13.9,0,29.9,0h195.2C242.1,0,256,13.9,256,29.9v195.2
	C256,242.1,242.1,256,226.1,256z"/>
<path class="st1" d="M-1.2-0.2H255V256H-1.2V-0.2z"/>
<path class="st2" d="M100.2,78.9l-79,49.1l128,128h76.9c13.3,0,25.1-9.5,28.7-22.5L100.2,78.9z"/>
<path class="st3" d="M100.2,177.1L51.1,128l49.1-49.1L85.3,63.9L21.2,128l64.1,64.1L100.2,177.1z M155.8,177.1l49.1-49.1l-49.1-49.1
	l14.9-14.9l64.1,64.1l-64.1,64.1L155.8,177.1z"/>
<path class="st4" d="M234.8,128l-64.1,64.1l62.9,62.9c12.6-3.5,22.4-15.6,22.4-29.9v-75.8L234.8,128z"/>
</svg>
